<svg width="44" height="44" fill="none" xmlns="http://www.w3.org/2000/svg"><rect width="44" height="44" rx="12" fill="#DCF2ED"/><g clip-path="url(#a)"><path d="M16 28c0 .55.45 1 1 1h1v3.5c0 .83.67 1.5 1.5 1.5s1.5-.67 1.5-1.5V29h2v3.5c0 .83.67 1.5 1.5 1.5s1.5-.67 1.5-1.5V29h1c.55 0 1-.45 1-1V18H16v10Zm-2.5-10c-.83 0-1.5.67-1.5 1.5v7c0 .83.67 1.5 1.5 1.5s1.5-.67 1.5-1.5v-7c0-.83-.67-1.5-1.5-1.5Zm17 0c-.83 0-1.5.67-1.5 1.5v7c0 .83.67 1.5 1.5 1.5s1.5-.67 1.5-1.5v-7c0-.83-.67-1.5-1.5-1.5Zm-4.97-5.84 1.3-1.3c.2-.2.2-.51 0-.71-.2-.2-.51-.2-.71 0l-1.48 1.48A5.84 5.84 0 0 0 22 11c-.96 0-1.86.23-2.66.63l-1.49-1.48c-.2-.2-.51-.2-.71 0-.2.2-.2.51 0 .71l1.31 1.31A5.983 5.983 0 0 0 16 17h12c0-1.99-.97-3.75-2.47-4.84ZM20 15h-1v-1h1v1Zm5 0h-1v-1h1v1Z" fill="#20484F"/></g><defs><clipPath id="a"><path fill="#fff" transform="translate(10 10)" d="M0 0h24v24H0z"/></clipPath></defs></svg>