<svg width="150" height="30" fill="none" xmlns="http://www.w3.org/2000/svg"><g clip-path="url(#a)" fill="#20484F"><path d="M11.75 4.582c-1.76 0-2.287.774-2.287 2.498v2.85h4.714l-.457 4.643H9.463v14.036H3.799V14.573H0V9.964h3.8V7.185C3.8 2.472 5.698.01 10.94.01c1.091 0 2.217.07 3.307.211v4.362M14.564 18.689c0-5.207 2.462-9.147 7.669-9.147 2.814 0 4.538 1.443 5.382 3.272v-2.85h5.417v18.68H27.58V25.83c-.774 1.794-2.568 3.201-5.383 3.201-5.17 0-7.668-3.905-7.668-9.146l.035-1.196Zm5.663 1.266c0 2.78 1.02 4.644 3.659 4.644 2.322 0 3.483-1.689 3.483-4.363v-1.9c0-2.673-1.196-4.361-3.483-4.361-2.638 0-3.659 1.83-3.659 4.643v1.337ZM44.782 9.542c2.18 0 4.292.458 5.417 1.267l-1.266 4.01a8.66 8.66 0 0 0-3.764-.844c-3.06 0-4.398 1.759-4.398 4.784v1.09c0 3.026 1.337 4.785 4.398 4.785a8.695 8.695 0 0 0 3.764-.88l1.266 4.01c-1.125.775-3.201 1.267-5.417 1.267-6.649 0-9.64-3.553-9.64-9.287v-.88c0-5.734 2.991-9.322 9.64-9.322ZM50.938 19.99v-1.653c0-5.312 3.025-8.795 9.181-8.795 5.805 0 8.373 3.518 8.373 8.725v2.99h-11.89c.105 2.568 1.266 3.693 4.397 3.693 2.04 0 4.08-.386 6.015-1.125l1.02 3.87c-1.477.773-4.537 1.371-7.246 1.371-7.176-.035-9.85-3.588-9.85-9.076Zm5.664-2.462h6.824v-.457c0-2.04-.809-3.659-3.306-3.659-2.533 0-3.518 1.618-3.518 4.116ZM89.458 19.885c0 5.206-2.497 9.146-7.704 9.146-2.814 0-4.784-1.407-5.558-3.201v2.814H70.85V.572l5.664-.493v12.489c.809-1.654 2.638-2.99 5.276-2.99 5.172 0 7.704 3.904 7.704 9.146l-.035 1.16Zm-5.663-1.302c0-2.638-1.02-4.608-3.73-4.608-2.321 0-3.552 1.653-3.552 4.327v1.97c0 2.673 1.266 4.327 3.553 4.327 2.708 0 3.729-1.97 3.729-4.609v-1.407ZM91.323 19.744v-.95c0-5.382 3.06-9.252 9.287-9.252s9.287 3.87 9.287 9.252v.95c0 5.382-3.06 9.252-9.287 9.252s-9.287-3.834-9.287-9.252Zm12.945-1.337c0-2.462-1.02-4.432-3.658-4.432s-3.659 1.97-3.659 4.432v1.76c0 2.462 1.02 4.432 3.659 4.432 2.638 0 3.658-1.97 3.658-4.433v-1.759ZM111.832 19.744v-.95c0-5.382 3.06-9.252 9.287-9.252 6.226 0 9.287 3.87 9.287 9.252v.95c0 5.382-3.061 9.252-9.287 9.252-6.227 0-9.287-3.834-9.287-9.252Zm12.945-1.337c0-2.462-1.02-4.432-3.658-4.432-2.639 0-3.659 1.97-3.659 4.432v1.76c0 2.462 1.02 4.432 3.659 4.432 2.638 0 3.658-1.97 3.658-4.433v-1.759ZM138.18 18.864l5.594-8.935h5.98l-5.84 9.252L150 28.644h-6.015l-5.805-9.146v9.146h-5.628V.572l5.628-.528"/></g><defs><clipPath id="a"><path fill="#fff" d="M0 0h150v29.04H0z"/></clipPath></defs></svg>