<svg width="48" height="48" fill="none" xmlns="http://www.w3.org/2000/svg"><path d="M19.8 14h8.4c3.2 0 5.8 2.6 5.8 5.8v8.4a5.8 5.8 0 0 1-5.8 5.8h-8.4c-3.2 0-5.8-2.6-5.8-5.8v-8.4a5.8 5.8 0 0 1 5.8-5.8Zm-.2 2a3.6 3.6 0 0 0-3.6 3.6v8.8c0 1.99 1.61 3.6 3.6 3.6h8.8a3.6 3.6 0 0 0 3.6-3.6v-8.8c0-1.99-1.61-3.6-3.6-3.6h-8.8Zm9.65 1.5a1.25 1.25 0 1 1 0 2.5 1.25 1.25 0 0 1 0-2.5ZM24 19a5 5 0 1 1 0 10 5 5 0 0 1 0-10Zm0 2a3 3 0 1 0 0 6 3 3 0 0 0 0-6Z" fill="#072125"/><path d="M24 47C11.297 47 1 36.703 1 24h-2c0 13.807 11.193 25 25 25v-2Zm23-23c0 12.703-10.297 23-23 23v2c13.807 0 25-11.193 25-25h-2ZM24 1c12.703 0 23 10.298 23 23h2C49 10.193 37.807-1 24-1v2Zm0-2C10.193-1-1 10.193-1 24h2C1 11.298 11.297 1 24 1v-2Z" fill="#20484F" fill-opacity=".1"/></svg>