<svg width="203" height="22" fill="none" xmlns="http://www.w3.org/2000/svg"><path d="M202.38 1.89v19.218L189.199 7.331v12.654h-2.746V.667l13.206 13.802V1.89h2.721ZM171.924 1.516s-2.671.025-4.818 1.297c0 0-2.147 1.248-3.395 3.395 0 0-1.274 2.121-1.299 4.792 0 0 .025 2.646 1.274 4.742 0 0 1.273 2.096 3.395 3.32 0 0 2.147 1.247 4.843 1.272 0 0 2.621-.025 4.743-1.297 0 0 2.122-1.248 3.37-3.37 0 0 1.273-2.121 1.298-4.742 0 0-.025-2.62-1.298-4.742 0 0-1.248-2.122-3.37-3.37 0 0-2.122-1.272-4.743-1.297Zm-.025 2.57s1.922.025 3.42.924c0 0 1.498.898 2.371 2.42 0 0 .899 1.548.899 3.52 0 0-.025 1.897-.899 3.444 0 0-.898 1.523-2.421 2.421 0 0-1.498.924-3.37.924 0 0-1.897-.025-3.42-.899 0 0-1.523-.898-2.422-2.42 0 0-.874-1.548-.898-3.47 0 0 .024-1.947.898-3.494 0 0 .874-1.548 2.397-2.446 0 0 1.523-.899 3.445-.924ZM155.772 4.436v15.549h-2.746V4.435h-4.144v-2.57h11.059v2.57h-4.169ZM146.311 4.436h-4.169v15.549h-2.746V4.435h-4.145v-2.57h11.06v2.57ZM130.558 1.865v18.12h-2.746V1.865h2.746ZM121.421 1.865v11.656s-.025 1.971-.873 3.494c0 0-.874 1.522-2.372 2.42 0 0-1.498.875-3.42.9 0 0-1.947-.026-3.47-.9 0 0-1.498-.898-2.372-2.42 0 0-.848-1.523-.873-3.494V1.865h2.746v10.907s0 1.173.125 1.872c0 0 .124.699.449 1.248 0 0 .499.873 1.398 1.348 0 0 .899.499 1.997.499 0 0 1.073 0 1.972-.5 0 0 .874-.474 1.398-1.347 0 0 .325-.55.449-1.248l.1-1.872V1.865h2.746ZM87.695 1.865h2.996l4.992 12.554 5.068-12.554h2.996l-8.114 19.468-7.938-19.468ZM71.768 4.46s-.6-.374-1.523-.374c0 0-1.148.025-1.872.65 0 0-.724.623-.75 1.597 0 0-.024.923.85 1.522l.449.3.699.324 1.773.724s2.171.899 3.195 2.171c0 0 1.048 1.298 1.023 3.095 0 0 0 1.697-.748 3.02 0 0-.725 1.298-2.023 2.072 0 0-1.298.748-2.945.773 0 0-2.447-.024-3.97-1.397 0 0-1.523-1.398-1.897-3.944l2.771-.649.2 1.223s.125.45.324.774c0 0 .35.649 1.049 1.023 0 0 .699.375 1.548.375 0 0 1.298-.025 2.121-.849 0 0 .824-.823.85-2.146 0 0-.026-1.548-1.249-2.396 0 0-.649-.425-1.348-.7l-1.722-.748s-3.745-1.547-3.72-4.567c0 0 0-1.398.724-2.471 0 0 .699-1.073 1.922-1.697 0 0 1.223-.624 2.771-.65 0 0 1.623 0 2.796.725 0 0 1.198.723 2.097 2.32l-2.197 1.323s-.599-1.023-1.198-1.422ZM58.562 1.865v18.12h-2.746V1.865h2.746ZM46.679 1.865h2.746v11.656s-.025 1.971-.874 3.494c0 0-.874 1.522-2.372 2.42 0 0-1.497.875-3.42.9 0 0-1.947-.026-3.47-.9 0 0-1.497-.898-2.371-2.42 0 0-.849-1.523-.874-3.494V1.865h2.746v10.907s0 1.173.125 1.872c0 0 .125.699.45 1.248 0 0 .499.873 1.397 1.348 0 0 .899.499 1.997.499 0 0 1.074 0 1.973-.5 0 0 .873-.474 1.398-1.347 0 0 .324-.55.449-1.248l.1-1.872V1.865ZM21.166 1.516s-2.672.025-4.819 1.297c0 0-2.146 1.248-3.395 3.395 0 0-1.273 2.121-1.298 4.792 0 0 .025 2.646 1.274 4.742 0 0 1.273 2.096 3.395 3.32 0 0 2.146 1.247 4.843 1.272 0 0 2.62-.025 4.743-1.297 0 0 2.122-1.248 3.37-3.37 0 0 1.273-2.121 1.298-4.742 0 0-.025-2.62-1.298-4.742 0 0-1.248-2.122-3.37-3.37 0 0-2.122-1.272-4.743-1.297Zm-.025 2.57s1.922.025 3.42.924c0 0 1.498.898 2.371 2.42 0 0 .874 1.548.899 3.52 0 0-.025 1.897-.899 3.444 0 0-.898 1.523-2.421 2.421 0 0-1.498.924-3.37.924 0 0-1.898-.025-3.42-.899 0 0-1.523-.898-2.422-2.42 0 0-.874-1.548-.899-3.47 0 0 .025-1.947.9-3.494 0 0 .873-1.548 2.396-2.446 0 0 1.522-.899 3.445-.924ZM3.366 1.865V17.39h5.318v2.596H.62V1.865h2.746Z" fill="#20484F"/></svg>