<svg width="41" height="33" viewBox="0 0 41 33" fill="none" xmlns="http://www.w3.org/2000/svg">
<path d="M23.3296 33.0002H38.6901V16.8464H31.6451C32.03 14.5387 33.031 12.5387 34.6479 10.8464C36.2648 9.15408 38.3822 8.00024 41 7.38486V0.000244141C35.1484 1.23101 30.7211 3.8464 27.7183 7.8464C24.7925 11.8464 23.3296 16.9233 23.3296 23.0772V33.0002ZM0 33.0002H15.2451V16.8464H8.2C8.58498 14.5387 9.58591 12.5387 11.2028 10.8464C12.8197 9.15408 14.9371 8.00024 17.5549 7.38486V0.000244141C11.7803 1.23101 7.39155 3.8464 4.38873 7.8464C1.46291 11.8464 0 16.9233 0 23.0772V33.0002Z" fill="#B8E4DA"/>
</svg>
