<svg width="161" height="74" fill="none" xmlns="http://www.w3.org/2000/svg"><path d="m57.574 49.39 1.592-3.693c1.72 1.283 4 1.949 6.255 1.949 1.67 0 2.717-.64 2.717-1.617-.025-2.714-9.974-.588-10.047-7.407-.025-3.46 3.05-6.13 7.408-6.13 2.59 0 5.179.643 7.026 2.107l-1.488 3.768c-1.69-1.078-3.793-1.847-5.793-1.847-1.361 0-2.255.642-2.255 1.46.025 2.665 10.047 1.205 10.15 7.717 0 3.537-2.996 6.025-7.305 6.025-3.155 0-6.054-.744-8.26-2.333v.002Zm61.004-5.026a4.581 4.581 0 0 1-2.21 1.973 4.6 4.6 0 0 1-5.43-1.425 4.576 4.576 0 0 1-.949-2.802 4.578 4.578 0 0 1 2.831-4.24 4.598 4.598 0 0 1 1.759-.35c1.715 0 3.204.95 4 2.332l4.382-2.435c-1.641-2.92-4.796-4.925-8.382-4.925-5.312 0-9.616 4.312-9.616 9.618 0 5.305 4.304 9.612 9.616 9.612a9.566 9.566 0 0 0 4.867-1.317 9.528 9.528 0 0 0 3.515-3.607l-4.383-2.433v-.001ZM75.345 24.52h5.49v26.845h-5.49V24.52Zm49.773 0v26.845h5.483v-8.05l6.516 8.05h7.026l-8.284-9.564 7.669-8.921h-6.721l-6.206 7.407V24.522h-5.484l.001-.002ZM97.141 44.418c-.795 1.308-2.437 2.277-4.284 2.277a4.601 4.601 0 0 1-3.248-1.344 4.577 4.577 0 0 1-1.34-3.241 4.572 4.572 0 0 1 1.34-3.243 4.596 4.596 0 0 1 3.248-1.348c1.847 0 3.489 1.024 4.284 2.357v4.542Zm0-11.54v2.183c-.898-1.515-3.13-2.569-5.463-2.569-4.82 0-8.613 4.259-8.613 9.589 0 5.335 3.793 9.641 8.613 9.641 2.333 0 4.565-1.053 5.463-2.562v2.181h5.489V32.879h-5.49Zm-73.488 11.51a3.383 3.383 0 0 1-4.683 3.127 3.388 3.388 0 0 1-1.833-1.833c-.17-.41-.256-.85-.255-1.294a3.367 3.367 0 0 1 .99-2.39 3.384 3.384 0 0 1 2.395-.99h3.386v3.38Zm1.69 0a3.366 3.366 0 0 1 .99-2.391 3.384 3.384 0 0 1 2.395-.99 3.394 3.394 0 0 1 2.396.99 3.375 3.375 0 0 1 .99 2.392v8.46a3.37 3.37 0 0 1-.99 2.393 3.388 3.388 0 0 1-5.782-2.393V44.387Zm3.385-13.585a3.398 3.398 0 0 1-2.397-.993 3.376 3.376 0 0 1-.989-2.394 3.366 3.366 0 0 1 .99-2.39 3.384 3.384 0 0 1 2.396-.99 3.39 3.39 0 0 1 2.396.99 3.372 3.372 0 0 1 .99 2.39v3.387h-3.386Zm0 1.72a3.393 3.393 0 0 1 2.396.99 3.373 3.373 0 0 1 .99 2.39 3.384 3.384 0 0 1-3.386 3.386h-8.485a3.394 3.394 0 0 1-3.13-2.091c-.17-.411-.257-.851-.256-1.295a3.366 3.366 0 0 1 .99-2.391 3.384 3.384 0 0 1 2.396-.99h8.485Zm13.566 3.38a3.367 3.367 0 0 1 2.088-3.123 3.393 3.393 0 0 1 4.427 1.829 3.384 3.384 0 0 1-3.13 4.68h-3.385v-3.386Zm-1.69 0a3.383 3.383 0 0 1-4.683 3.128 3.387 3.387 0 0 1-1.833-1.833c-.17-.411-.257-.851-.255-1.295v-8.487a3.366 3.366 0 0 1 .99-2.39 3.384 3.384 0 0 1 2.396-.99 3.39 3.39 0 0 1 3.129 2.087c.17.41.256.85.255 1.293v8.487Zm-3.385 13.565a3.394 3.394 0 0 1 2.396.99 3.372 3.372 0 0 1 .988 2.392 3.37 3.37 0 0 1-.988 2.392 3.389 3.389 0 0 1-5.782-2.393v-3.38h3.386Zm0-1.694a3.394 3.394 0 0 1-3.131-2.092 3.37 3.37 0 0 1-.255-1.294 3.366 3.366 0 0 1 .99-2.391 3.384 3.384 0 0 1 2.396-.99h8.485a3.394 3.394 0 0 1 2.396.99 3.373 3.373 0 0 1 .989 2.392 3.37 3.37 0 0 1-.989 2.392 3.389 3.389 0 0 1-2.396.993h-8.485Z" fill="#20484F"/></svg>