<svg width="150" height="32" fill="none" xmlns="http://www.w3.org/2000/svg"><path d="M133.331 5.051h12.953V7.79h-2.55c-1.081 0-1.976.375-2.702 1.127l-8.664 9.243v4.477c0 .752.372 1.127 1.132 1.127h3.209V26.5h-15.623v-2.737h3.226c.76 0 1.115-.375 1.115-1.127V18.45l-8.884-9.533c-.726-.752-1.621-1.127-2.702-1.127h-2.533V5.051h15.909V7.79h-1.588c-.371 0-.624.134-.743.402-.101.269-.067.51.135.725l5.253 5.603 5.252-5.603c.186-.215.237-.456.119-.725-.102-.268-.355-.402-.744-.402h-1.57V5.051Zm-28.593 21.45h-4.425L82.7 11.428v11.207c0 .752.376 1.127 1.124 1.127h3.225V26.5H73.875v-2.737h3.22c.752 0 1.127-.375 1.127-1.127V8.916c0-.752-.374-1.127-1.126-1.127h-3.22V5.051h11.043l15.326 13.108V8.916c0-.752-.371-1.127-1.114-1.127h-3.226V5.051h13.173V7.79h-3.225c-.76 0-1.115.375-1.115 1.127V26.5ZM54.424 3.715c-10.037 0-16.682 5.166-16.682 12.06s6.645 12.06 16.682 12.06c10.04 0 16.685-5.166 16.685-12.06s-6.646-12.06-16.685-12.06Zm0 3.215c5.758 0 9.568 3.788 9.568 8.845 0 5.055-3.81 8.845-9.568 8.845-5.755 0-9.567-3.79-9.567-8.845 0-5.057 3.812-8.845 9.567-8.845ZM28.74 4.796h2.738v7.244H28.74c-1.365-4.49-8.15-5.163-12.403-5.163-3.721 0-6.5.978-6.5 2.868 0 2.184 5.233 2.246 9.465 2.819 5.45.738 13.398.611 13.398 7.735 0 5.62-7.465 7.527-12.14 7.537-8.37.019-10.967-2.391-12.882-2.391-.532 0-.806.513-.806 1.54H4.134v-8.129h2.738c1.029 4.9 8.561 5.967 11.736 5.967 2.25 0 8.04-.44 8.04-3.116 0-2.535-3.716-2.403-8.229-3.047-4.947-.707-14.703-.86-14.703-7.439 0-5.077 5.688-7.505 12.07-7.505 7.413 0 11.077 2.406 12.175 2.406.519 0 .779-.476.779-1.326Z" fill="#20484F"/></svg>