<svg aria-hidden="true" style="position: absolute; width: 0; height: 0; overflow: hidden;" version="1.1" xmlns="http://www.w3.org/2000/svg" xmlns:xlink="http://www.w3.org/1999/xlink">
<defs>
<symbol id="icon-alarm" viewBox="0 0 32 32">
<path fill="#dcf2ed" style="fill: var(--color1, #dcf2ed)" d="M6.857 0h18.286c3.787 0 6.857 3.070 6.857 6.857v18.286c0 3.787-3.070 6.857-6.857 6.857h-18.286c-3.787 0-6.857-3.070-6.857-6.857v-18.286c0-3.787 3.070-6.857 6.857-6.857z"></path>
<path fill="#20484f" style="fill: var(--color2, #20484f)" d="M21.714 12.411l-2.629-2.206-0.737 0.874 2.629 2.206 0.737-0.874zM13.646 11.080l-0.731-0.874-2.629 2.2 0.737 0.874 2.623-2.2zM16.286 13.714h-0.857v3.429l2.714 1.629 0.429-0.703-2.286-1.354v-3zM16 11.429c-2.84 0-5.143 2.303-5.143 5.143v0c0 2.84 2.297 5.143 5.143 5.143 2.84 0 5.143-2.303 5.143-5.143s-2.303-5.143-5.143-5.143v0zM16 20.571c-2.211 0-4-1.789-4-4s1.789-4 4-4 4 1.789 4 4-1.789 4-4 4z"></path>
</symbol>
<symbol id="icon-android" viewBox="0 0 32 32">
<path fill="#dcf2ed" style="fill: var(--color1, #dcf2ed)" d="M8.727 0h14.545c4.82 0 8.727 3.907 8.727 8.727v14.545c0 4.82-3.907 8.727-8.727 8.727h-14.545c-4.82 0-8.727-3.907-8.727-8.727v-14.545c0-4.82 3.907-8.727 8.727-8.727z"></path>
<path fill="#20484f" style="fill: var(--color2, #20484f)" d="M11.636 20.364c0 0.4 0.327 0.727 0.727 0.727h0.727v2.545c0 0.604 0.487 1.091 1.091 1.091s1.091-0.487 1.091-1.091v-2.545h1.455v2.545c0 0.604 0.487 1.091 1.091 1.091s1.091-0.487 1.091-1.091v-2.545h0.727c0.4 0 0.727-0.327 0.727-0.727v-7.273h-8.727v7.273zM9.818 13.091c-0.604 0-1.091 0.487-1.091 1.091v5.091c0 0.604 0.487 1.091 1.091 1.091s1.091-0.487 1.091-1.091v-5.091c0-0.604-0.487-1.091-1.091-1.091zM22.182 13.091c-0.604 0-1.091 0.487-1.091 1.091v5.091c0 0.604 0.487 1.091 1.091 1.091s1.091-0.487 1.091-1.091v-5.091c0-0.604-0.487-1.091-1.091-1.091zM18.567 8.844l0.945-0.945c0.145-0.145 0.145-0.371 0-0.516s-0.371-0.145-0.516 0l-1.076 1.076c-0.558-0.289-1.219-0.458-1.919-0.458-0 0-0.001 0-0.001 0h0c-0.698 0-1.353 0.167-1.935 0.458l-1.084-1.076c-0.145-0.145-0.371-0.145-0.516 0s-0.145 0.371 0 0.516l0.953 0.953c-1.085 0.801-1.782 2.075-1.782 3.512 0 0 0 0.001 0 0.001v-0h8.727c0-1.447-0.705-2.727-1.796-3.52zM14.545 10.909h-0.727v-0.727h0.727v0.727zM18.182 10.909h-0.727v-0.727h0.727v0.727z"></path>
</symbol>
<symbol id="icon-checkmark2" viewBox="0 0 32 32">
<path fill="#dcf2ed" style="fill: var(--color1, #dcf2ed)" d="M6.857 0h18.286c3.787 0 6.857 3.070 6.857 6.857v18.286c0 3.787-3.070 6.857-6.857 6.857h-18.286c-3.787 0-6.857-3.070-6.857-6.857v-18.286c0-3.787 3.070-6.857 6.857-6.857z"></path>
<path fill="#20484f" style="fill: var(--color2, #20484f)" d="M18.623 13.474l-3.766 3.766-2.051-2.046-0.806 0.806 2.857 2.857 4.571-4.571-0.806-0.811zM16 10.286c-3.154 0-5.714 2.56-5.714 5.714s2.56 5.714 5.714 5.714 5.714-2.56 5.714-5.714-2.56-5.714-5.714-5.714zM16 20.571c-2.526 0-4.571-2.046-4.571-4.571s2.046-4.571 4.571-4.571 4.571 2.046 4.571 4.571-2.046 4.571-4.571 4.571z"></path>
</symbol>
<symbol id="icon-checkmark3" viewBox="0 0 32 32">
<path fill="#dcf2ed" style="fill: var(--color1, #dcf2ed)" d="M8.727 0h14.547c4.82 0 8.727 3.907 8.727 8.727v14.547c0 4.82-3.907 8.727-8.727 8.727h-14.547c-4.82 0-8.727-3.907-8.727-8.727v-14.547c0-4.82 3.907-8.727 8.727-8.727z"></path>
<path fill="#20484f" style="fill: var(--color2, #20484f)" d="M13.819 19.033l-3.035-3.033-1.033 1.027 4.067 4.064 8.727-8.727-1.027-1.027-7.7 7.696z"></path>
</symbol>
<symbol id="icon-checkmark" viewBox="0 0 32 32">
<path fill="#dcf2ed" style="fill: var(--color1, #dcf2ed)" d="M31.51 16.073c0 8.676-7.033 15.709-15.709 15.709s-15.709-7.033-15.709-15.709c0-8.676 7.033-15.709 15.709-15.709s15.709 7.033 15.709 15.709z"></path>
<path fill="#20484f" style="fill: var(--color2, #20484f)" d="M13.715 18.974l-2.9-2.9-0.987 0.98 3.888 3.888 8.346-8.346-0.98-0.981-7.365 7.358z"></path>
</symbol>
<symbol id="icon-decoration" viewBox="0 0 28 32">
<path fill="#20484f" style="fill: var(--color2, #20484f)" d="M0.592 0.179l19.958 15.225c0.13 0.099 0.154 0.284 0.056 0.413s-0.284 0.154-0.413 0.056l-19.958-15.225c-0.13-0.099-0.154-0.284-0.056-0.413s0.284-0.154 0.413-0.056z"></path>
<path fill="#20484f" style="fill: var(--color2, #20484f)" d="M17.677 10.715l10.859 8.284c0.13 0.099 0.154 0.284 0.056 0.413s-0.284 0.154-0.413 0.056l-10.859-8.284c-0.13-0.099-0.154-0.284-0.056-0.413s0.284-0.154 0.413-0.056z"></path>
<path fill="#20484f" style="fill: var(--color2, #20484f)" d="M16.124 31.131l10.859 8.284c0.13 0.099 0.154 0.284 0.056 0.413s-0.284 0.154-0.413 0.056l-10.859-8.284c-0.13-0.099-0.154-0.284-0.056-0.413s0.284-0.154 0.413-0.056z"></path>
<path fill="#20484f" style="fill: var(--color2, #20484f)" d="M11.476 27.949l3.158 2.409c0.13 0.099 0.154 0.284 0.056 0.413s-0.284 0.154-0.413 0.056l-3.158-2.409c-0.13-0.099-0.154-0.284-0.056-0.413s0.284-0.154 0.413-0.056z"></path>
<path fill="#20484f" style="fill: var(--color2, #20484f)" d="M8.26 28.197l10.859 8.284c0.13 0.099 0.154 0.284 0.056 0.413s-0.284 0.154-0.413 0.056l-10.859-8.284c-0.13-0.099-0.154-0.284-0.056-0.413s0.284-0.154 0.413-0.056z"></path>
<path fill="#20484f" style="fill: var(--color2, #20484f)" d="M19.32 7.11l10.859 8.284c0.13 0.099 0.154 0.284 0.056 0.413s-0.284 0.154-0.413 0.056l-10.859-8.284c-0.13-0.099-0.154-0.284-0.056-0.413s0.284-0.154 0.413-0.056z"></path>
<path fill="#20484f" style="fill: var(--color2, #20484f)" d="M8.439 22.961l10.859 8.284c0.13 0.099 0.154 0.284 0.056 0.413s-0.284 0.154-0.413 0.056l-10.859-8.284c-0.13-0.099-0.154-0.284-0.056-0.413s0.284-0.154 0.413-0.056z"></path>
<path fill="#20484f" style="fill: var(--color2, #20484f)" d="M17.963 27.737l10.859 8.284c0.13 0.099 0.154 0.284 0.056 0.413s-0.284 0.154-0.413 0.056l-10.859-8.284c-0.13-0.099-0.154-0.284-0.056-0.413s0.284-0.154 0.413-0.056z"></path>
<path fill="#20484f" style="fill: var(--color2, #20484f)" d="M18.379 18.466l10.859 8.284c0.13 0.099 0.154 0.284 0.056 0.413s-0.284 0.154-0.413 0.056l-10.859-8.284c-0.13-0.099-0.154-0.284-0.056-0.413s0.284-0.154 0.413-0.056z"></path>
<path fill="#20484f" style="fill: var(--color2, #20484f)" d="M16.594 17.241l0.219 0.167c0.13 0.099 0.154 0.284 0.056 0.413s-0.284 0.154-0.413 0.056l-0.219-0.167c-0.13-0.099-0.154-0.284-0.056-0.413s0.284-0.154 0.413-0.056z"></path>
<path fill="#20484f" style="fill: var(--color2, #20484f)" d="M27.284 15.515l0.219 0.167c0.13 0.099 0.154 0.284 0.056 0.413s-0.284 0.154-0.413 0.056l-0.219-0.167c-0.13-0.099-0.154-0.284-0.056-0.413s0.284-0.154 0.413-0.056z"></path>
<path fill="#20484f" style="fill: var(--color2, #20484f)" d="M8.492 11.267l6.662 5.082c0.13 0.099 0.154 0.284 0.056 0.413s-0.284 0.154-0.413 0.056l-6.662-5.082c-0.13-0.099-0.154-0.284-0.056-0.413s0.284-0.154 0.413-0.056z"></path>
<path fill="#20484f" style="fill: var(--color2, #20484f)" d="M11.059 20.275l6.662 5.082c0.13 0.099 0.154 0.284 0.056 0.413s-0.284 0.154-0.413 0.056l-6.662-5.082c-0.13-0.099-0.154-0.284-0.056-0.413s0.284-0.154 0.413-0.056z"></path>
<path fill="#20484f" style="fill: var(--color2, #20484f)" d="M22.154 16.691l14.728 11.235c0.13 0.099 0.154 0.284 0.056 0.413s-0.284 0.154-0.413 0.056l-14.728-11.235c-0.13-0.099-0.154-0.284-0.056-0.413s0.284-0.154 0.413-0.056z"></path>
<path fill="#20484f" style="fill: var(--color2, #20484f)" d="M20.493 17.899l14.728 11.235c0.13 0.099 0.154 0.284 0.056 0.413s-0.284 0.154-0.413 0.056l-14.728-11.235c-0.13-0.099-0.154-0.284-0.056-0.413s0.284-0.154 0.413-0.056z"></path>
<path fill="#20484f" style="fill: var(--color2, #20484f)" d="M25.366 9.322l14.728 11.235c0.13 0.099 0.154 0.284 0.056 0.413s-0.284 0.154-0.413 0.056l-14.728-11.235c-0.13-0.099-0.154-0.284-0.056-0.413s0.284-0.154 0.413-0.056z"></path>
<path fill="#20484f" style="fill: var(--color2, #20484f)" d="M3.035 9.295l19.958 15.225c0.13 0.099 0.154 0.284 0.056 0.413s-0.284 0.154-0.413 0.056l-19.958-15.225c-0.13-0.099-0.154-0.284-0.056-0.413s0.284-0.154 0.413-0.056z"></path>
<path fill="#20484f" style="fill: var(--color2, #20484f)" d="M20.822 27.582l10.859 8.284c0.13 0.099 0.154 0.284 0.056 0.413s-0.284 0.154-0.413 0.056l-10.859-8.284c-0.13-0.099-0.154-0.284-0.056-0.413s0.284-0.154 0.413-0.056z"></path>
<path fill="#20484f" style="fill: var(--color2, #20484f)" d="M19.036 26.357l0.219 0.167c0.13 0.099 0.154 0.284 0.056 0.413s-0.284 0.154-0.413 0.056l-0.219-0.167c-0.13-0.099-0.154-0.284-0.056-0.413s0.284-0.154 0.413-0.056z"></path>
<path fill="#20484f" style="fill: var(--color2, #20484f)" d="M24.597 25.807l14.728 11.235c0.13 0.099 0.154 0.284 0.056 0.413s-0.284 0.154-0.413 0.056l-14.728-11.235c-0.13-0.099-0.154-0.284-0.056-0.413s0.284-0.154 0.413-0.056z"></path>
<path fill="#20484f" style="fill: var(--color2, #20484f)" d="M22.936 27.015l14.728 11.235c0.13 0.099 0.154 0.284 0.056 0.413s-0.284 0.154-0.413 0.056l-14.728-11.235c-0.13-0.099-0.154-0.284-0.056-0.413s0.284-0.154 0.413-0.056z"></path>
<path fill="#20484f" style="fill: var(--color2, #20484f)" d="M6.953 14.657l14.728 11.235c0.13 0.099 0.154 0.284 0.056 0.413s-0.284 0.154-0.413 0.056l-14.728-11.235c-0.13-0.099-0.154-0.284-0.056-0.413s0.284-0.154 0.413-0.056z"></path>
</symbol>
<symbol id="icon-facebook" viewBox="0 0 32 32">
<path fill="#072125" style="fill: var(--color3, #072125)" d="M16 9.36c-3.667 0-6.667 2.993-6.667 6.68 0 3.333 2.44 6.1 5.627 6.6v-4.667h-1.693v-1.933h1.693v-1.473c0-1.673 0.993-2.593 2.52-2.593 0.727 0 1.487 0.127 1.487 0.127v1.647h-0.84c-0.827 0-1.087 0.513-1.087 1.040v1.253h1.853l-0.3 1.933h-1.553v4.667c3.207-0.521 5.627-3.27 5.627-6.585 0-0.005 0-0.011-0-0.016v0.001c0-3.687-3-6.68-6.667-6.68z"></path>
<path fill="#20484f" style="fill: var(--color2, #20484f)" opacity="0.1" d="M16 31.333c-8.469 0-15.333-6.865-15.333-15.333h-1.333c0 9.205 7.462 16.667 16.667 16.667v-1.333zM31.333 16c0 8.469-6.865 15.333-15.333 15.333v1.333c9.205 0 16.667-7.462 16.667-16.667h-1.333zM16 0.667c8.469 0 15.333 6.865 15.333 15.333h1.333c0-9.205-7.462-16.667-16.667-16.667v1.333zM16-0.667c-9.205 0-16.667 7.462-16.667 16.667h1.333c0-8.468 6.865-15.333 15.333-15.333v-1.333z"></path>
</symbol>
<symbol id="icon-facebook-text" viewBox="0 0 160 32">
<path fill="#20484f" style="fill: var(--color2, #20484f)" d="M12.533 4.887c-1.877 0-2.439 0.826-2.439 2.665v3.040h5.028l-0.487 4.953h-4.541v14.972h-6.042v-14.972h-4.052v-4.916h4.053v-2.964c0-5.027 2.025-7.653 7.616-7.653 1.164 0 2.365 0.075 3.527 0.225v4.653zM15.535 19.935c0-5.554 2.626-9.757 8.18-9.757 3.002 0 4.841 1.539 5.741 3.49v-3.040h5.778v19.925h-5.815v-3.002c-0.826 1.914-2.739 3.414-5.742 3.414-5.515 0-8.179-4.165-8.179-9.756l0.037-1.276zM21.575 21.285c0 2.965 1.088 4.954 3.903 4.954 2.477 0 3.715-1.802 3.715-4.654v-2.027c0-2.851-1.276-4.652-3.715-4.652-2.814 0-3.903 1.952-3.903 4.953v1.426zM47.767 10.178c2.325 0 4.578 0.489 5.778 1.351l-1.35 4.277c-1.164-0.568-2.532-0.9-3.978-0.9-0.013 0-0.026 0-0.039 0h0.002c-3.264 0-4.691 1.876-4.691 5.103v1.163c0 3.228 1.426 5.104 4.691 5.104 1.463-0.008 2.843-0.354 4.069-0.963l-0.054 0.024 1.35 4.277c-1.2 0.827-3.414 1.351-5.778 1.351-7.092 0-10.283-3.79-10.283-9.906v-0.939c0-6.116 3.19-9.943 10.283-9.943zM54.334 21.323v-1.763c0-5.666 3.227-9.381 9.793-9.381 6.192 0 8.931 3.753 8.931 9.307v3.189h-12.683c0.112 2.739 1.35 3.939 4.69 3.939 2.176 0 4.352-0.412 6.416-1.2l1.088 4.128c-1.575 0.825-4.839 1.462-7.729 1.462-7.654-0.037-10.507-3.827-10.507-9.681zM60.375 18.697h7.279v-0.487c0-2.176-0.863-3.903-3.526-3.903-2.702 0-3.753 1.726-3.753 4.39zM95.422 21.211c0 5.553-2.663 9.756-8.218 9.756-3.002 0-5.103-1.501-5.929-3.414v3.002h-5.702v-29.943l6.042-0.526v13.322c0.863-1.764 2.814-3.189 5.628-3.189 5.517 0 8.218 4.164 8.218 9.756l-0.037 1.237zM89.381 19.822c0-2.814-1.088-4.915-3.979-4.915-2.476 0-3.789 1.763-3.789 4.615v2.101c0 2.851 1.35 4.615 3.79 4.615 2.889 0 3.978-2.101 3.978-4.916v-1.501zM97.411 21.060v-1.013c0-5.741 3.264-9.869 9.906-9.869s9.906 4.128 9.906 9.869v1.013c0 5.741-3.264 9.869-9.906 9.869s-9.906-4.090-9.906-9.869zM111.219 19.634c0-2.626-1.088-4.727-3.902-4.727s-3.903 2.101-3.903 4.727v1.877c0 2.626 1.088 4.727 3.903 4.727 2.814 0 3.902-2.101 3.902-4.729v-1.876zM119.287 21.060v-1.013c0-5.741 3.264-9.869 9.906-9.869 6.641 0 9.906 4.128 9.906 9.869v1.013c0 5.741-3.265 9.869-9.906 9.869-6.642 0-9.906-4.090-9.906-9.869zM133.095 19.634c0-2.626-1.088-4.727-3.902-4.727-2.815 0-3.903 2.101-3.903 4.727v1.877c0 2.626 1.088 4.727 3.903 4.727 2.814 0 3.902-2.101 3.902-4.729v-1.876zM147.392 20.122l5.967-9.531h6.379l-6.229 9.869 6.492 10.094h-6.416l-6.192-9.756v9.756h-6.003v-29.943l6.003-0.563z"></path>
</symbol>
<symbol id="icon-fingerprint" viewBox="0 0 32 32">
<path fill="#dcf2ed" style="fill: var(--color1, #dcf2ed)" d="M6.857 0h18.286c3.787 0 6.857 3.070 6.857 6.857v18.286c0 3.787-3.070 6.857-6.857 6.857h-18.286c-3.787 0-6.857-3.070-6.857-6.857v-18.286c0-3.787 3.070-6.857 6.857-6.857z"></path>
<path fill="#20484f" style="fill: var(--color2, #20484f)" d="M19.32 11.697c-0.046 0-0.091-0.011-0.131-0.034-1.097-0.566-2.046-0.806-3.183-0.806-1.131 0-2.206 0.269-3.183 0.806-0.137 0.074-0.309 0.023-0.389-0.114-0.021-0.039-0.034-0.086-0.034-0.136 0-0.108 0.059-0.202 0.147-0.252l0.001-0.001c1.063-0.577 2.229-0.874 3.457-0.874 1.217 0 2.28 0.269 3.446 0.869 0.143 0.074 0.194 0.246 0.12 0.383-0.046 0.095-0.141 0.159-0.251 0.16h-0zM11.143 14.697c-0.001 0-0.002 0-0.003 0-0.157 0-0.285-0.128-0.285-0.285 0-0.062 0.020-0.12 0.054-0.167l-0.001 0.001c0.566-0.8 1.286-1.429 2.143-1.869 1.794-0.926 4.091-0.931 5.891-0.006 0.857 0.44 1.577 1.063 2.143 1.857 0.033 0.046 0.053 0.104 0.053 0.166 0 0.096-0.048 0.182-0.121 0.233l-0.001 0.001c-0.131 0.091-0.309 0.063-0.4-0.069-0.502-0.705-1.152-1.273-1.907-1.666l-0.030-0.014c-1.64-0.84-3.737-0.84-5.371 0.006-0.777 0.4-1.429 0.971-1.943 1.691-0.046 0.080-0.131 0.12-0.223 0.12zM14.714 21.594c-0.001 0-0.002 0-0.003 0-0.078 0-0.148-0.033-0.197-0.086l-0-0c-0.497-0.497-0.766-0.817-1.149-1.509-0.394-0.703-0.6-1.56-0.6-2.48 0-1.697 1.451-3.080 3.234-3.080s3.234 1.383 3.234 3.080c0 0.16-0.126 0.286-0.286 0.286s-0.286-0.126-0.286-0.286c0-1.383-1.194-2.509-2.663-2.509s-2.663 1.126-2.663 2.509c0 0.823 0.183 1.583 0.531 2.2 0.366 0.657 0.617 0.937 1.057 1.383 0.109 0.114 0.109 0.291 0 0.406-0.063 0.057-0.137 0.086-0.211 0.086zM18.811 20.537c-0.68 0-1.28-0.171-1.771-0.509-0.851-0.577-1.36-1.514-1.36-2.509 0-0.16 0.126-0.286 0.286-0.286s0.286 0.126 0.286 0.286c0 0.806 0.411 1.566 1.109 2.034 0.406 0.274 0.88 0.406 1.451 0.406 0.137 0 0.366-0.017 0.594-0.057 0.154-0.029 0.303 0.074 0.331 0.234 0.029 0.154-0.074 0.303-0.234 0.331-0.326 0.063-0.611 0.069-0.691 0.069zM17.663 21.714c-0.023 0-0.051-0.006-0.074-0.011-0.909-0.251-1.503-0.589-2.126-1.2-0.766-0.756-1.24-1.806-1.24-2.967 0-0.006 0-0.011 0-0.017v0.001c0-0.926 0.789-1.68 1.76-1.68s1.76 0.754 1.76 1.68c0 0.611 0.531 1.109 1.189 1.109s1.189-0.497 1.189-1.109c0-2.154-1.857-3.903-4.143-3.903-1.623 0-3.109 0.903-3.777 2.303-0.223 0.463-0.337 1.006-0.337 1.6 0 0.446 0.040 1.149 0.383 2.063 0.057 0.149-0.017 0.314-0.166 0.366-0.149 0.057-0.314-0.023-0.366-0.166-0.264-0.672-0.417-1.449-0.417-2.263v-0c0-0.686 0.131-1.309 0.389-1.851 0.76-1.594 2.446-2.629 4.291-2.629 2.6 0 4.714 2.006 4.714 4.474 0 0.926-0.789 1.68-1.76 1.68s-1.76-0.754-1.76-1.68c0-0.611-0.531-1.109-1.189-1.109s-1.189 0.497-1.189 1.109c0 0.977 0.377 1.891 1.069 2.577 0.543 0.537 1.063 0.834 1.869 1.057 0.154 0.040 0.24 0.2 0.2 0.349-0.029 0.131-0.149 0.217-0.269 0.217z"></path>
</symbol>
<symbol id="icon-instagram" viewBox="0 0 32 32">
<path fill="#072125" style="fill: var(--color3, #072125)" d="M13.2 9.333h5.6c2.133 0 3.867 1.733 3.867 3.867v5.6c0 2.136-1.731 3.867-3.867 3.867h-5.6c-2.133 0-3.867-1.733-3.867-3.867v-5.6c0-2.136 1.731-3.867 3.867-3.867v0zM13.067 10.667c-1.325 0-2.4 1.075-2.4 2.4v0 5.867c0 1.327 1.073 2.4 2.4 2.4h5.867c1.325 0 2.4-1.075 2.4-2.4v0-5.867c0-1.327-1.073-2.4-2.4-2.4h-5.867zM19.5 11.667c0.46 0 0.833 0.373 0.833 0.833s-0.373 0.833-0.833 0.833v0c-0.46 0-0.833-0.373-0.833-0.833s0.373-0.833 0.833-0.833v0zM16 12.667c1.841 0 3.333 1.492 3.333 3.333s-1.492 3.333-3.333 3.333v0c-1.841 0-3.333-1.492-3.333-3.333s1.492-3.333 3.333-3.333v0zM16 14c-1.105 0-2 0.895-2 2s0.895 2 2 2v0c1.105 0 2-0.895 2-2s-0.895-2-2-2v0z"></path>
<path fill="#20484f" style="fill: var(--color2, #20484f)" opacity="0.1" d="M16 31.333c-8.469 0-15.333-6.865-15.333-15.333h-1.333c0 9.205 7.462 16.667 16.667 16.667v-1.333zM31.333 16c0 8.469-6.865 15.333-15.333 15.333v1.333c9.205 0 16.667-7.462 16.667-16.667h-1.333zM16 0.667c8.469 0 15.333 6.865 15.333 15.333h1.333c0-9.205-7.462-16.667-16.667-16.667v1.333zM16-0.667c-9.205 0-16.667 7.462-16.667 16.667h1.333c0-8.468 6.865-15.333 15.333-15.333v-1.333z"></path>
</symbol>
<symbol id="icon-louis-vuitton" viewBox="0 0 295 32">
<path fill="#20484f" style="fill: var(--color2, #20484f)" d="M294.371 2.749v27.953l-19.172-20.039v18.406h-3.994v-28.099l19.209 20.076v-18.297h3.958zM250.071 2.205s-3.885 0.036-7.008 1.887c0 0-3.123 1.815-4.938 4.938 0 0-1.853 3.085-1.889 6.97 0 0 0.036 3.849 1.853 6.897 0 0 1.852 3.049 4.938 4.829 0 0 3.123 1.814 7.044 1.85 0 0 3.812-0.036 6.899-1.887 0 0 3.087-1.815 4.902-4.902 0 0 1.852-3.085 1.888-6.897 0 0-0.036-3.811-1.888-6.897 0 0-1.815-3.087-4.902-4.902 0 0-3.087-1.85-6.899-1.887zM250.035 5.943s2.796 0.036 4.975 1.344c0 0 2.179 1.306 3.449 3.52 0 0 1.308 2.252 1.308 5.12 0 0-0.036 2.759-1.308 5.009 0 0-1.306 2.215-3.521 3.521 0 0-2.179 1.344-4.902 1.344 0 0-2.759-0.036-4.975-1.308 0 0-2.215-1.306-3.523-3.52 0 0-1.271-2.252-1.306-5.047 0 0 0.035-2.832 1.306-5.082 0 0 1.271-2.252 3.487-3.558 0 0 2.215-1.308 5.011-1.344zM226.577 6.452v22.617h-3.994v-22.618h-6.028v-3.738h16.086v3.738h-6.064zM212.816 6.452h-6.064v22.617h-3.994v-22.618h-6.029v-3.738h16.087v3.738zM189.903 2.713v26.356h-3.994v-26.356h3.994zM176.612 2.713v16.954s-0.036 2.867-1.27 5.082c0 0-1.271 2.214-3.45 3.52 0 0-2.179 1.273-4.975 1.309 0 0-2.832-0.038-5.047-1.309 0 0-2.179-1.306-3.45-3.52 0 0-1.233-2.215-1.27-5.082v-16.954h3.994v15.865s0 1.706 0.182 2.723c0 0 0.18 1.017 0.653 1.815 0 0 0.726 1.27 2.033 1.961 0 0 1.308 0.726 2.905 0.726 0 0 1.561 0 2.868-0.727 0 0 1.271-0.689 2.033-1.959 0 0 0.473-0.8 0.653-1.815l0.145-2.723v-15.865h3.994zM127.556 2.713h4.358l7.261 18.26 7.372-18.26h4.358l-11.802 28.317-11.546-28.317zM104.39 6.487s-0.873-0.544-2.215-0.544c0 0-1.67 0.036-2.723 0.945 0 0-1.053 0.906-1.091 2.323 0 0-0.035 1.343 1.236 2.214l0.653 0.436 1.017 0.471 2.579 1.053s3.158 1.308 4.647 3.158c0 0 1.524 1.888 1.488 4.502 0 0 0 2.468-1.088 4.393 0 0-1.055 1.888-2.943 3.014 0 0-1.888 1.088-4.284 1.124 0 0-3.559-0.035-5.775-2.032 0 0-2.215-2.033-2.759-5.737l4.031-0.944 0.291 1.779s0.182 0.655 0.471 1.126c0 0 0.509 0.944 1.526 1.488 0 0 1.017 0.545 2.252 0.545 0 0 1.888-0.036 3.085-1.235 0 0 1.199-1.197 1.236-3.121 0 0-0.038-2.252-1.817-3.485 0 0-0.944-0.618-1.961-1.018l-2.505-1.088s-5.447-2.25-5.411-6.643c0 0 0-2.033 1.053-3.594 0 0 1.017-1.561 2.796-2.468 0 0 1.779-0.908 4.031-0.945 0 0 2.361 0 4.067 1.055 0 0 1.743 1.052 3.050 3.375l-3.196 1.924s-0.871-1.488-1.743-2.068zM85.181 2.713v26.356h-3.994v-26.356h3.994zM67.897 2.713h3.994v16.954s-0.036 2.867-1.271 5.082c0 0-1.271 2.214-3.45 3.52 0 0-2.177 1.273-4.975 1.309 0 0-2.832-0.038-5.047-1.309 0 0-2.177-1.306-3.449-3.52 0 0-1.235-2.215-1.271-5.082v-16.954h3.994v15.865s0 1.706 0.182 2.723c0 0 0.182 1.017 0.655 1.815 0 0 0.726 1.27 2.032 1.961 0 0 1.308 0.726 2.905 0.726 0 0 1.562 0 2.87-0.727 0 0 1.27-0.689 2.033-1.959 0 0 0.471-0.8 0.653-1.815l0.145-2.723v-15.865zM30.787 2.205s-3.887 0.036-7.009 1.887c0 0-3.121 1.815-4.938 4.938 0 0-1.852 3.085-1.888 6.97 0 0 0.036 3.849 1.853 6.897 0 0 1.852 3.049 4.938 4.829 0 0 3.121 1.814 7.044 1.85 0 0 3.811-0.036 6.899-1.887 0 0 3.087-1.815 4.902-4.902 0 0 1.852-3.085 1.888-6.897 0 0-0.036-3.811-1.888-6.897 0 0-1.815-3.087-4.902-4.902 0 0-3.087-1.85-6.899-1.887zM30.751 5.943s2.796 0.036 4.975 1.344c0 0 2.179 1.306 3.449 3.52 0 0 1.271 2.252 1.308 5.12 0 0-0.036 2.759-1.308 5.009 0 0-1.306 2.215-3.521 3.521 0 0-2.179 1.344-4.902 1.344 0 0-2.761-0.036-4.975-1.308 0 0-2.215-1.306-3.523-3.52 0 0-1.271-2.252-1.308-5.047 0 0 0.036-2.832 1.309-5.082 0 0 1.27-2.252 3.485-3.558 0 0 2.214-1.308 5.011-1.344zM4.896 2.713v22.582h7.735v3.776h-11.729v-26.358h3.994z"></path>
</symbol>
<symbol id="icon-question" viewBox="0 0 32 32">
<path fill="#dcf2ed" style="fill: var(--color1, #dcf2ed)" d="M8.727 0h14.545c4.82 0 8.727 3.907 8.727 8.727v14.545c0 4.82-3.907 8.727-8.727 8.727h-14.545c-4.82 0-8.727-3.907-8.727-8.727v-14.545c0-4.82 3.907-8.727 8.727-8.727z"></path>
<path fill="#20484f" style="fill: var(--color2, #20484f)" d="M15.636 8.727c-3.411 0-6.182 2.771-6.182 6.182s2.771 6.182 6.182 6.182h0.364v2.182c3.535-1.702 5.818-5.091 5.818-8.364 0-3.411-2.771-6.182-6.182-6.182zM16.364 19.273h-1.455v-1.455h1.455v1.455zM16.364 16.727h-1.455c0-2.364 2.182-2.182 2.182-3.636 0-0.8-0.655-1.455-1.455-1.455s-1.455 0.655-1.455 1.455h-1.455c0-1.607 1.302-2.909 2.909-2.909s2.909 1.302 2.909 2.909c0 1.818-2.182 2-2.182 3.636z"></path>
</symbol>
<symbol id="icon-quotes2" viewBox="0 0 40 32">
<path fill="#b8e4da" style="fill: var(--color4, #b8e4da)" d="M22.623 32h14.895v-15.665h-6.831c0.374-2.283 1.416-4.275 2.915-5.821l-0.003 0.003c1.568-1.641 3.621-2.76 6.16-3.356v-7.161c-5.675 1.194-9.968 3.729-12.88 7.608-2.836 3.879-4.255 8.802-4.255 14.769v9.622zM0 32h14.783v-15.665h-6.832c0.374-2.283 1.416-4.275 2.915-5.821l-0.003 0.003c1.568-1.641 3.621-2.76 6.159-3.356v-7.161c-5.6 1.194-9.855 3.729-12.767 7.608-2.837 3.879-4.256 8.802-4.256 14.769v9.622z"></path>
</symbol>
<symbol id="icon-quotes" viewBox="0 0 32 32">
<path fill="#dcf2ed" style="fill: var(--color1, #dcf2ed)" d="M8.727 0h14.545c4.82 0 8.727 3.907 8.727 8.727v14.545c0 4.82-3.907 8.727-8.727 8.727h-14.545c-4.82 0-8.727-3.907-8.727-8.727v-14.545c0-4.82 3.907-8.727 8.727-8.727z"></path>
<path fill="#20484f" style="fill: var(--color2, #20484f)" d="M14.109 19.345l-3.345-3.345 3.345-3.345-1.018-1.018-4.364 4.364 4.364 4.364 1.018-1.018zM17.891 19.345l3.345-3.345-3.345-3.345 1.018-1.018 4.364 4.364-4.364 4.364-1.018-1.018z"></path>
</symbol>
<symbol id="icon-slack" viewBox="0 0 70 32">
<path fill="#20484f" style="fill: var(--color2, #20484f)" d="M24.897 21.358l0.688-1.597c0.744 0.555 1.73 0.843 2.705 0.843 0.722 0 1.175-0.277 1.175-0.699-0.011-1.174-4.313-0.254-4.345-3.203-0.011-1.496 1.319-2.651 3.203-2.651 1.12 0 2.24 0.278 3.038 0.911l-0.643 1.629c-0.731-0.466-1.64-0.799-2.505-0.799-0.589 0-0.975 0.278-0.975 0.631 0.011 1.152 4.345 0.521 4.389 3.337 0 1.529-1.296 2.605-3.159 2.605-1.364 0-2.618-0.322-3.572-1.009v0.001zM51.277 19.184c-0.218 0.381-0.547 0.678-0.943 0.848l-0.013 0.005c-0.228 0.099-0.495 0.157-0.774 0.157-0.639 0-1.207-0.301-1.571-0.769l-0.003-0.004c-0.256-0.33-0.41-0.75-0.41-1.207 0-0.002 0-0.004 0-0.005v0c0-0.001 0-0.002 0-0.004 0-0.821 0.5-1.525 1.211-1.825l0.013-0.005c0.225-0.096 0.486-0.151 0.761-0.151v0c0.742 0 1.386 0.411 1.73 1.008l1.895-1.053c-0.71-1.263-2.074-2.13-3.625-2.13-2.297 0-4.158 1.865-4.158 4.159s1.861 4.157 4.158 4.157c0.003 0 0.007 0 0.010 0 0.772 0 1.495-0.212 2.114-0.58l-0.019 0.010c0.64-0.38 1.155-0.908 1.509-1.539l0.011-0.021-1.895-1.053zM32.582 10.603h2.374v11.609h-2.374v-11.609zM54.105 10.603v11.609h2.371v-3.481l2.818 3.481h3.038l-3.582-4.136 3.316-3.858h-2.906l-2.684 3.203v-6.817l-2.371-0.001zM42.007 19.208c-0.344 0.566-1.054 0.985-1.853 0.985-0.548-0-1.045-0.222-1.405-0.581l0 0c-0.358-0.358-0.579-0.853-0.579-1.399 0-0.001 0-0.002 0-0.002v0c0-0.001 0-0.003 0-0.004 0-0.546 0.221-1.041 0.579-1.398v0c0.359-0.36 0.856-0.582 1.404-0.583h0c0.799 0 1.509 0.443 1.853 1.019v1.964zM42.007 14.217v0.944c-0.388-0.655-1.353-1.111-2.362-1.111-2.084 0-3.725 1.842-3.725 4.147 0 2.307 1.64 4.169 3.725 4.169 1.009 0 1.974-0.455 2.362-1.108v0.943h2.374v-7.984h-2.374zM10.228 19.195c0 0 0 0.001 0 0.002 0 0.808-0.655 1.463-1.463 1.463-0.203 0-0.396-0.041-0.572-0.116l0.010 0.004c-0.36-0.152-0.641-0.433-0.789-0.783l-0.004-0.010c-0.074-0.177-0.111-0.368-0.11-0.56 0-0.001 0-0.002 0-0.002 0-0.403 0.164-0.768 0.428-1.031l0-0c0.265-0.265 0.63-0.428 1.034-0.428 0.001 0 0.001 0 0.002 0h1.464v1.462zM10.959 19.195c0-0.001 0-0.002 0-0.003 0-0.403 0.164-0.767 0.428-1.031l0-0c0.265-0.265 0.63-0.428 1.034-0.428 0.001 0 0.001 0 0.002 0h-0c0 0 0 0 0 0 0.404 0 0.771 0.164 1.036 0.428l-0-0c0.264 0.264 0.428 0.629 0.428 1.033 0 0.001 0 0.001 0 0.002v-0 3.658c0 0.001 0 0.002 0 0.003 0 0.403-0.164 0.768-0.428 1.032l-0 0c-0.265 0.265-0.631 0.428-1.035 0.428-0.808 0-1.464-0.655-1.465-1.463v-3.659zM12.423 13.32c-0.405-0-0.771-0.164-1.037-0.429l0 0c-0.264-0.264-0.428-0.629-0.428-1.032 0-0.001 0-0.002 0-0.003v0c0-0.001 0-0.002 0-0.002 0-0.403 0.164-0.767 0.428-1.031l0-0c0.265-0.265 0.63-0.428 1.034-0.428 0.001 0 0.001 0 0.002 0h-0c0 0 0.001 0 0.001 0 0.404 0 0.77 0.164 1.035 0.428l-0-0c0.264 0.264 0.428 0.629 0.428 1.032 0 0.001 0 0.001 0 0.002v-0 1.465h-1.464zM12.423 14.064c0 0 0 0 0 0 0.404 0 0.771 0.164 1.036 0.428l-0-0c0.264 0.264 0.428 0.629 0.428 1.032 0 0 0 0.001 0 0.001v-0c0 0 0 0.001 0 0.001 0 0.808-0.655 1.463-1.463 1.463-0 0-0.001 0-0.001 0h-3.669c-0.607-0.001-1.127-0.369-1.35-0.895l-0.004-0.010c-0.074-0.178-0.111-0.368-0.111-0.56 0-0.001 0-0.002 0-0.003 0-0.403 0.164-0.767 0.428-1.031l0-0c0.265-0.265 0.63-0.428 1.034-0.428 0.001 0 0.001 0 0.002 0h3.669zM18.289 15.526c0-0.001 0-0.002 0-0.004 0-0.605 0.369-1.123 0.893-1.343l0.010-0.004c0.166-0.070 0.358-0.111 0.56-0.111 0.606 0 1.127 0.368 1.35 0.893l0.004 0.010c0.071 0.166 0.112 0.358 0.112 0.56 0 0.808-0.655 1.463-1.463 1.463-0.001 0-0.001 0-0.002 0h-1.464v-1.464zM17.558 15.526c0 0.001 0 0.001 0 0.002 0 0.808-0.655 1.463-1.463 1.463-0.203 0-0.396-0.041-0.572-0.116l0.010 0.004c-0.36-0.152-0.641-0.433-0.789-0.783l-0.004-0.010c-0.073-0.178-0.111-0.368-0.11-0.56v-3.67c0-0.001 0-0.002 0-0.002 0-0.403 0.164-0.767 0.428-1.031l0-0c0.265-0.265 0.63-0.428 1.034-0.428 0.001 0 0.001 0 0.002 0h-0c0.606 0 1.126 0.368 1.349 0.893l0.004 0.010c0.073 0.177 0.111 0.368 0.11 0.559v3.67zM16.095 21.392c0 0 0 0 0 0 0.404 0 0.771 0.164 1.036 0.428l-0-0c0.264 0.264 0.427 0.628 0.427 1.031 0 0.001 0 0.002 0 0.003v-0c0 0.001 0 0.002 0 0.003 0 0.403-0.163 0.767-0.427 1.031v0c-0.265 0.264-0.631 0.428-1.035 0.428-0.808 0-1.464-0.654-1.466-1.462v-1.462h1.464zM16.095 20.659c-0.607-0.001-1.127-0.369-1.35-0.895l-0.004-0.010c-0.070-0.164-0.11-0.355-0.11-0.556 0-0.001 0-0.002 0-0.004v0c0-0.001 0-0.002 0-0.003 0-0.403 0.164-0.767 0.428-1.031l0-0c0.265-0.265 0.63-0.428 1.034-0.428 0.001 0 0.001 0 0.002 0h3.669c0 0 0 0 0 0 0.404 0 0.771 0.164 1.036 0.428l-0-0c0.264 0.264 0.428 0.629 0.428 1.032 0 0.001 0 0.002 0 0.003v-0c0 0.001 0 0.002 0 0.003 0 0.403-0.163 0.767-0.428 1.031l-0 0c-0.265 0.265-0.631 0.429-1.036 0.429h-3.669z"></path>
</symbol>
<symbol id="icon-sony" viewBox="0 0 150 32">
<path fill="#20484f" style="fill: var(--color2, #20484f)" d="M133.331 5.051h12.953v2.739h-2.55c-1.081 0-1.976 0.375-2.702 1.127l-8.664 9.243v4.477c0 0.752 0.372 1.127 1.132 1.127h3.209v2.736h-15.623v-2.737h3.226c0.76 0 1.115-0.375 1.115-1.127v-4.186l-8.884-9.533c-0.726-0.752-1.621-1.127-2.702-1.127h-2.533v-2.739h15.909v2.739h-1.588c-0.371 0-0.624 0.134-0.743 0.402-0.101 0.269-0.067 0.51 0.135 0.725l5.253 5.603 5.252-5.603c0.186-0.215 0.237-0.456 0.119-0.725-0.102-0.268-0.355-0.402-0.744-0.402h-1.57v-2.739zM104.738 26.501h-4.425l-17.613-15.073v11.207c0 0.752 0.376 1.127 1.124 1.127h3.225v2.738h-13.174v-2.737h3.22c0.752 0 1.127-0.375 1.127-1.127v-13.72c0-0.752-0.374-1.127-1.126-1.127h-3.22v-2.738h11.043l15.326 13.108v-9.243c0-0.752-0.371-1.127-1.114-1.127h-3.226v-2.738h13.173v2.739h-3.225c-0.76 0-1.115 0.375-1.115 1.127v17.583zM54.424 3.715c-10.037 0-16.682 5.166-16.682 12.060s6.645 12.060 16.682 12.060c10.040 0 16.685-5.166 16.685-12.060s-6.646-12.060-16.685-12.060zM54.424 6.93c5.758 0 9.568 3.788 9.568 8.845 0 5.055-3.81 8.845-9.568 8.845-5.755 0-9.567-3.79-9.567-8.845 0-5.057 3.812-8.845 9.567-8.845zM28.74 4.796h2.738v7.244h-2.738c-1.365-4.49-8.15-5.163-12.403-5.163-3.721 0-6.5 0.978-6.5 2.868 0 2.184 5.233 2.246 9.465 2.819 5.45 0.738 13.398 0.611 13.398 7.735 0 5.62-7.465 7.527-12.14 7.537-8.37 0.019-10.967-2.391-12.882-2.391-0.532 0-0.806 0.513-0.806 1.54h-2.738v-8.129h2.738c1.029 4.9 8.561 5.967 11.736 5.967 2.25 0 8.040-0.44 8.040-3.116 0-2.535-3.716-2.403-8.229-3.047-4.947-0.707-14.703-0.86-14.703-7.439 0-5.077 5.688-7.505 12.070-7.505 7.413 0 11.077 2.406 12.175 2.406 0.519 0 0.779-0.476 0.779-1.326z"></path>
</symbol>
<symbol id="icon-square" viewBox="0 0 32 32">
<path fill="#dcf2ed" style="fill: var(--color1, #dcf2ed)" d="M6.857 0h18.286c3.787 0 6.857 3.070 6.857 6.857v18.286c0 3.787-3.070 6.857-6.857 6.857h-18.286c-3.787 0-6.857-3.070-6.857-6.857v-18.286c0-3.787 3.070-6.857 6.857-6.857z"></path>
<path fill="#20484f" style="fill: var(--color2, #20484f)" d="M9.714 14.286h1.143v-1.143h-1.143v1.143zM9.714 16.571h1.143v-1.143h-1.143v1.143zM9.714 12h1.143v-1.143c-0.629 0-1.143 0.514-1.143 1.143zM14.286 21.143h1.143v-1.143h-1.143v1.143zM9.714 18.857h1.143v-1.143h-1.143v1.143zM10.857 21.143v-1.143h-1.143c0 0.629 0.514 1.143 1.143 1.143zM21.143 10.857h-4.571v3.429h5.714v-2.286c0-0.629-0.514-1.143-1.143-1.143zM21.143 18.857h1.143v-1.143h-1.143v1.143zM14.286 12h1.143v-1.143h-1.143v1.143zM12 21.143h1.143v-1.143h-1.143v1.143zM12 12h1.143v-1.143h-1.143v1.143zM21.143 21.143c0.629 0 1.143-0.514 1.143-1.143h-1.143v1.143zM21.143 16.571h1.143v-1.143h-1.143v1.143zM16.571 21.143h1.143v-1.143h-1.143v1.143zM18.857 21.143h1.143v-1.143h-1.143v1.143z"></path>
</symbol>
<symbol id="icon-time" viewBox="0 0 32 32">
<path fill="#dcf2ed" style="fill: var(--color1, #dcf2ed)" d="M8.727 0h14.545c4.82 0 8.727 3.907 8.727 8.727v14.545c0 4.82-3.907 8.727-8.727 8.727h-14.545c-4.82 0-8.727-3.907-8.727-8.727v-14.545c0-4.82 3.907-8.727 8.727-8.727z"></path>
<path fill="#20484f" style="fill: var(--color2, #20484f)" d="M12.742 22.895c-2.39-1.145-4.070-3.432-4.339-6.136l-0.003-0.032h-1.091c0.371 4.48 4.116 8 8.691 8l0.48-0.022-2.771-2.771-0.967 0.96zM13.389 18.153c-0.138 0-0.269-0.022-0.378-0.058-0.113-0.038-0.211-0.098-0.291-0.175l0 0c-0.080-0.073-0.145-0.16-0.189-0.269-0.044-0.102-0.065-0.218-0.065-0.342h-0.945c0 0.262 0.051 0.495 0.153 0.691s0.24 0.364 0.407 0.502c0.175 0.131 0.371 0.233 0.596 0.298 0.218 0.073 0.451 0.109 0.698 0.109 0.269 0 0.524-0.036 0.749-0.109 0.233-0.073 0.436-0.182 0.604-0.32s0.305-0.313 0.4-0.524c0.095-0.211 0.145-0.444 0.145-0.705 0-0.138-0.015-0.276-0.051-0.407-0.037-0.141-0.095-0.265-0.17-0.375l0.003 0.004c-0.073-0.116-0.175-0.218-0.291-0.313-0.124-0.095-0.269-0.167-0.444-0.225 0.267-0.121 0.487-0.308 0.644-0.54l0.003-0.005c0.073-0.109 0.124-0.218 0.16-0.335s0.051-0.233 0.051-0.349c0-0.262-0.044-0.495-0.131-0.698-0.084-0.2-0.211-0.369-0.369-0.5l-0.002-0.002c-0.145-0.138-0.342-0.24-0.56-0.313-0.225-0.065-0.473-0.102-0.742-0.102-0.262 0-0.502 0.036-0.727 0.116-0.218 0.080-0.415 0.189-0.575 0.327-0.153 0.138-0.276 0.298-0.371 0.487-0.087 0.189-0.131 0.393-0.131 0.618h0.945c0-0.124 0.022-0.233 0.065-0.327 0.043-0.098 0.105-0.181 0.181-0.247l0.001-0.001c0.080-0.065 0.167-0.124 0.276-0.16s0.218-0.058 0.349-0.058c0.291 0 0.509 0.073 0.647 0.225 0.138 0.145 0.211 0.356 0.211 0.625 0 0.131-0.022 0.247-0.058 0.356-0.038 0.107-0.101 0.198-0.181 0.268l-0.001 0.001c-0.080 0.073-0.182 0.131-0.298 0.175s-0.262 0.065-0.422 0.065h-0.56v0.749h0.56c0.16 0 0.305 0.015 0.436 0.051s0.24 0.095 0.327 0.167c0.087 0.080 0.16 0.175 0.211 0.291s0.073 0.255 0.073 0.415c0 0.298-0.087 0.524-0.255 0.676-0.167 0.167-0.4 0.24-0.691 0.24zM19.607 13.847c-0.233-0.24-0.509-0.429-0.829-0.56-0.313-0.131-0.669-0.196-1.062-0.196h-1.716v5.818h1.673c0.4 0 0.771-0.065 1.098-0.196s0.611-0.313 0.844-0.553c0.233-0.24 0.415-0.531 0.538-0.865 0.124-0.342 0.189-0.72 0.189-1.142v-0.291c0-0.422-0.065-0.8-0.189-1.142-0.131-0.342-0.313-0.633-0.545-0.873zM19.324 16.145c0 0.305-0.036 0.575-0.102 0.822-0.073 0.24-0.175 0.451-0.313 0.618s-0.313 0.298-0.516 0.385c-0.211 0.087-0.451 0.131-0.72 0.131h-0.662v-4.196h0.705c0.524 0 0.924 0.167 1.193 0.502 0.276 0.335 0.415 0.815 0.415 1.447v0.291zM16 7.273l-0.48 0.022 2.771 2.771 0.967-0.967c2.378 1.127 4.080 3.433 4.335 6.167h1.091c-0.364-4.473-4.109-7.993-8.684-7.993z"></path>
</symbol>
<symbol id="icon-twitter" viewBox="0 0 32 32">
<path fill="#072125" style="fill: var(--color3, #072125)" d="M22.973 12c-0.513 0.233-1.067 0.387-1.64 0.46 0.587-0.353 1.040-0.913 1.253-1.587-0.553 0.333-1.167 0.567-1.813 0.7-0.527-0.573-1.267-0.907-2.107-0.907-1.567 0-2.847 1.28-2.847 2.86 0 0.227 0.027 0.447 0.073 0.653-2.373-0.12-4.487-1.26-5.893-2.987-0.247 0.42-0.387 0.913-0.387 1.433 0 0.993 0.5 1.873 1.273 2.373-0.473 0-0.913-0.133-1.3-0.333v0.020c0 1.387 0.987 2.547 2.293 2.807-0.42 0.115-0.86 0.131-1.287 0.047 0.373 1.146 1.421 1.963 2.664 1.987l0.003 0c-0.959 0.765-2.188 1.227-3.526 1.227-0.010 0-0.019-0-0.029-0h0.002c-0.227 0-0.453-0.013-0.68-0.040 1.267 0.813 2.773 1.287 4.387 1.287 5.253 0 8.14-4.36 8.14-8.14 0-0.127 0-0.247-0.007-0.373 0.56-0.4 1.040-0.907 1.427-1.487z"></path>
<path fill="#20484f" style="fill: var(--color2, #20484f)" opacity="0.1" d="M16 31.333c-8.469 0-15.333-6.865-15.333-15.333h-1.333c0 9.205 7.462 16.667 16.667 16.667v-1.333zM31.333 16c0 8.469-6.865 15.333-15.333 15.333v1.333c9.205 0 16.667-7.462 16.667-16.667h-1.333zM16 0.667c8.469 0 15.333 6.865 15.333 15.333h1.333c0-9.205-7.462-16.667-16.667-16.667v1.333zM16-0.667c-9.205 0-16.667 7.462-16.667 16.667h1.333c0-8.468 6.865-15.333 15.333-15.333v-1.333z"></path>
</symbol>
</defs>
</svg>
